<?xml version="1.0" encoding="utf-8"?>
<svg version="1.1" xmlns:cc="http://creativecommons.org/ns#" xmlns:dc="http://purl.org/dc/elements/1.1/" xmlns:rdf="http://www.w3.org/1999/02/22-rdf-syntax-ns#" xmlns="http://www.w3.org/2000/svg" xmlns:xlink="http://www.w3.org/1999/xlink" x="0px" y="0px" viewBox="0 0 1024 768" xml:space="preserve">
 <defs>  <linearGradient id="a" y2="301.85088" gradientUnits="userSpaceOnUse" x2="695.05029" y1="301.85088" x1="328.94971">   <stop stop-color="#673ab7" offset="0"/>   <stop stop-color="#7931c2" offset=".10795"/>   <stop stop-color="#a11cda" offset=".37902"/>   <stop stop-color="#bd0ceb" offset=".62721"/>   <stop stop-color="#cf03f5" offset=".84234"/>   <stop stop-color="#d500f9" offset="1"/>  </linearGradient>  <linearGradient id="b" y2="558.56761" gradientUnits="userSpaceOnUse" x2="737" y1="558.56761" x1="287">   <stop stop-color="#d500f9" offset="0"/>   <stop stop-color="#311b92" offset="0"/>   <stop stop-color="#4a15a9" offset=".17071"/>   <stop stop-color="#7e0ad7" offset=".55262"/>   <stop stop-color="#9e03f4" offset=".84089"/>   <stop stop-color="#a0f" offset="1"/>  </linearGradient> </defs> <path d="m451.13909 142.4584v42.14208l-122.18938 65.25242v-42.14208zm121.72182 149.53674v-42.14224l-122.18938-65.25242v127.1063l96.80047 52.95416v-42.14209l-57.073-31.73873v-42.82182zm-122.18938 103.99596l122.18938 65.25227v-42.14209l-122.18938-65.25242zm-82.46195-82.13994 58.41076-31.19295v-42.14209l-97.67063 52.1586v126.42656l122.18938-65.25242v-42.14208l-82.92951 44.28646zm326.84071-171.39276v42.14208l-122.18938 65.25242v-42.14208zm-82.9295 171.39276 58.41076-31.19295v-42.14209l-97.67064 52.1586v126.42656l39.25988-20.96595z" fill="url(#a)"/> <path d="m287 549.29339v-56.372h58.36365v13.50573h-44.936v29.36657h44.936v13.49973zm23.01923-34.97193h35.34442v13.49973h-25.161zm53.6024 13.49973c-14.90558 0-14.90558-17.33877-14.90558-17.33877s0-17.56106 14.68329-17.56106h48.03308v13.50573h-45.96637c-2.3611 0-2.3611 4.05533-2.3611 4.05533s0 3.839 2.3611 3.839h31.72767c14.90257 0 14.90257 17.41087 14.90257 17.41087s0 17.56106-14.60818 17.56106h-48.10818v-13.49969h45.96636c2.36111 0 2.36111-4.06133 2.36111-4.06133s0-3.91114-2.36111-3.91114zm101.12181 2.4392h-15.64455l-9.886-13.50573h23.68611c2.3611 0.22229 2.3611-5.08869 2.3611-5.08869s0-5.23888-2.3611-5.23888h-33.3528v42.8663h-13.42762v-56.372h48.84414c14.68329 0 14.68329 18.74461 14.68329 18.74461s-0.00001 18.59439-14.90257 18.59439zm78.09957 7.67208c-1.17755 12.61653-29.58586 12.61653-29.58586 12.61653s-28.40831 0-29.58886-12.61657v-33.72225c1.18055-12.61657 29.58886-12.61657 29.58886-12.61657s28.40831 0 29.58586 12.61657zm-13.42764-28.77779c-2.5113-4.7943-16.15822-4.7943-16.15822-4.7943s-13.65293 0-16.16122 4.7943v23.83332c2.50829 4.7222 16.16122 4.7222 16.16122 4.7222s13.64692 0 16.23032-4.7222zm17.44692-16.23332h48.84414c14.68329 0 14.68329 18.74461 14.68329 18.74461s0 18.59442-14.90558 18.59442l14.68329 19.033h-16.30543l-23.90539-32.53873h23.6831c2.3611 0.22229 2.3611-5.08869 2.3611-5.08869s0-5.23888-2.3611-5.23888h-33.3498v42.8663h-13.42762zm67.54671 0h55.85535v13.50573h-21.2499v42.8663h-13.35554v-42.8663h-21.24991zm74.11333 34.89983c-14.90557 0-14.90557-17.33877-14.90557-17.33877s0-17.56106 14.68328-17.56106h48.03909v13.50573h-45.97237c-2.36111 0-2.36111 4.05533-2.36111 4.05533s0 3.839 2.36111 3.839h31.72766c14.90558 0.00004 14.90558 17.41091 14.90558 17.41091s0 17.56106-14.61119 17.56106h-48.10518v-13.49973h45.96637c2.3611 0 2.3611-4.06133 2.3611-4.06133s0-3.91114-2.3611-3.91114zm-401.52233 96.24212v-66.36776h68.71252v15.90053h-52.90394v34.57377h52.90394v15.89346zm27.10093-41.173h41.61159v15.89346h-29.62252zm116.00742 27.79759c-1.38988 14.8537-34.83193 14.8537-34.83193 14.8537s-33.44559 0-34.83547-14.8537v-52.99235h15.80858v47.17111c2.95306 5.55953 19.02689 5.55953 19.02689 5.55953s16.07029 0 19.02335-5.55953v-47.17111h15.80858zm4.732-52.99235h57.505c17.28688 0 17.28688 22.06836 17.28688 22.06836s0 21.89153-17.54505 21.89153l17.28688 22.40787h-19.20016l-28.14423-38.30841h27.88606c2.77976 0.26171 2.77976-5.991 2.77976-5.991s0-6.16783-2.77976-6.16783h-39.26683v50.46723h-15.80858zm149.1948 52.99235c-1.38634 14.8537-34.83193 14.8537-34.83193 14.8537s-33.44559 0-34.83547-14.8537v-39.70182c1.38988-14.85371 34.83547-14.85371 34.83547-14.85371s33.44559 0 34.83193 14.85371zm-15.80858-33.88059c-2.95306-5.6444-19.02335-5.6444-19.02335-5.6444s-16.07383 0-19.02689 5.6444v28.05935c2.95306 5.55953 19.02689 5.55953 19.02689 5.55953s16.07029 0 19.10823-5.55953zm77.78389 24.84813h-18.41152l-11.64247-15.90054h27.88253c2.77976 0.26171 2.77976-5.991 2.77976-5.991s0-6.16783-2.77976-6.16783h-39.2633v50.46723h-15.80858v-66.36775h57.505c17.28688 0 17.28688 22.06836 17.28688 22.06836s0.00005 21.89153-17.54854 21.89153zm22.28054 22.40787v-66.36776h68.709v15.90053h-52.9004v34.57377h52.9004v15.89346zm27.10448-41.173h41.60452v15.89346h-29.61545z" fill="url(#b)"/>
</svg>