<?xml version="1.0" encoding="utf-8"?>
<!-- Generator: Adobe Illustrator 22.0.1, SVG Export Plug-In . SVG Version: 6.00 Build 0)  -->
<svg version="1.1" id="Layer_1" xmlns="http://www.w3.org/2000/svg" xmlns:xlink="http://www.w3.org/1999/xlink" x="0px" y="0px"
	 width="159px" height="24px" viewBox="0 0 159 24" style="enable-background:new 0 0 159 24;" xml:space="preserve">
<style type="text/css">
	.st0{fill:#F05A22;}
	.st1{fill:#FFFFFF;}
</style>
<g id="logo_slogan" transform="translate(0 0)">
	<path id="Path_25" class="st0" d="M0,11.9c0.1-5,4.1-9,9.1-8.9s9,4.1,8.9,9.1C18,17.1,14,21,9,21C4,21,0,16.9,0,11.9
		C0,11.9,0,11.9,0,11.9"/>
	<path id="Path_26" class="st1" d="M89.9,16.2c-2.1-0.1-3.8-1.7-3.9-3.9v-0.7c0-2.2,1.8-3.9,4-3.9c2.2,0,3.9,1.8,3.9,4
		c0,0.1,0,0.1,0,0.2C93.9,14.2,92.2,16,89.9,16.2 M90.6,4.2c-1.7,0-3.3,0.6-4.6,1.7V4.6H82V24h4.1v-6c1.3,1.1,2.9,1.7,4.6,1.7
		c4.1-0.1,7.4-3.6,7.2-7.7C97.9,7.7,94.6,4.2,90.6,4.2"/>
	<path id="Path_27" class="st1" d="M159,4.6h-3.1V0h-4.1v4.6H150V8h1.8v11.2h4.1V8h3.1L159,4.6z"/>
	<path id="Path_28" class="st1" d="M128.5,11.9c0.1,2.2-1.7,4.1-3.9,4.2c-2.1-0.1-3.8-1.7-3.9-3.9v-0.7c0.1-2.1,1.8-3.8,3.9-3.9
		C126.8,7.8,128.5,9.6,128.5,11.9 M132.5,11.9c0.1-4.1-3.1-7.6-7.2-7.7c-1.7,0-3.3,0.6-4.6,1.7V0h-4.1v19.2h4.1V18
		c1.3,1.1,2.9,1.7,4.6,1.7C129.4,19.5,132.6,16,132.5,11.9"/>
	<path id="Path_29" class="st1" d="M103.3,11.6c0-2.2,1.8-4,4.1-4.1c1.2-0.1,2.4,0.6,3,1.6l-7.1,2.9C103.3,12,103.3,11.8,103.3,11.6
		 M104.5,15.1l10.2-4.2c-0.3-3.8-3.6-6.8-7.4-6.7c-4.3,0-7.7,3.4-7.8,7.7c0,0,0,0,0,0c0.1,4.3,3.6,7.8,8,7.7c2.9,0,5.5-1.2,6.7-2.6
		l-2.2-2.3C107.5,18,104.6,15.4,104.5,15.1"/>
	<path id="Path_30" class="st1" d="M47.8,4.6v8.2c0,1.8-1.4,3.3-3.2,3.3c-1.8,0-3.3-1.4-3.3-3.2c0,0,0-0.1,0-0.1V4.6h-4v7.7l0,0
		c-0.1,4,3.1,7.3,7.1,7.4s7.3-3.1,7.4-7.1c0-0.1,0-0.2,0-0.2V4.6H47.8z"/>
	<path id="Path_31" class="st1" d="M72.1,16.2c-2.3,0.1-4.3-1.7-4.4-4c-0.1-2.3,1.7-4.3,4-4.4c2.3-0.1,4.3,1.7,4.4,4
		c0,0.1,0,0.1,0,0.2C76.1,14.2,74.3,16,72.1,16.2 M72.1,4.2c-4.3,0.2-7.6,3.7-7.4,8s3.7,7.6,8,7.4c4.2-0.2,7.4-3.6,7.4-7.7
		C80,7.6,76.4,4.1,72.1,4.2"/>
	<path id="Path_32" class="st1" d="M24.1,11.6c0-2.2,1.8-4,4.1-4.1c1.2-0.1,2.4,0.6,3,1.6L24.1,12L24.1,11.6 M25.2,15.1l10.2-4.2
		C35.2,7,31.9,4.1,28,4.2c-4.3,0-7.7,3.4-7.8,7.7c0,0,0,0,0,0c0.1,4.3,3.6,7.8,7.9,7.7c2.9,0,5.5-1.2,6.7-2.6l-2.2-2.3
		C28.4,17.9,25.4,15.4,25.2,15.1"/>
	<path id="Path_33" class="st1" d="M137.9,11.6c0-2.2,1.8-4,4.1-4.1c1.2-0.1,2.4,0.6,3,1.6l-7.1,2.9L137.9,11.6 M139,15.1l10.2-4.2
		c-0.4-3.8-3.6-6.7-7.4-6.7c-4.3,0-7.7,3.4-7.8,7.7c0,0,0,0,0,0c0.1,4.3,3.6,7.8,7.9,7.7c2.9,0,5.5-1.2,6.7-2.6l-2.2-2.3
		C142.1,18,139.2,15.4,139,15.1"/>
	<path id="Path_34" class="st1" d="M63.2,4.3c-3.2-0.6-9,0.5-9,6.8v8.2h4v-7.1c0-5,5-4.2,5-4.2L63.2,4.3L63.2,4.3z"/>
</g>
</svg>
